<?xml version="1.0" standalone="no"?><!DOCTYPE svg PUBLIC "-//W3C//DTD SVG 1.1//EN" "http://www.w3.org/Graphics/SVG/1.1/DTD/svg11.dtd"><svg t="1692214279963" class="icon" viewBox="0 0 1024 1024" version="1.1" xmlns="http://www.w3.org/2000/svg" p-id="13002" xmlns:xlink="http://www.w3.org/1999/xlink" width="200" height="200"><path d="M512.4096 514.7136m-450.816 0a450.816 450.816 0 1 0 901.632 0 450.816 450.816 0 1 0-901.632 0Z" fill="#FF9552" p-id="13003"></path><path d="M726.4256 271.616h-428.032c-38.8608 0-70.3488 31.488-70.3488 70.3488v338.3296c0 38.8608 31.488 70.3488 70.3488 70.3488h135.0144c6.5024 0 12.6464 2.7136 16.9984 7.5264l50.5344 55.7568a22.9376 22.9376 0 0 0 33.3312 0.7168l56.4736-57.1904c4.3008-4.352 10.1888-6.8096 16.3328-6.8096h119.296c38.8608 0 70.3488-31.488 70.3488-70.3488V341.9136c0.0512-38.8096-31.4368-70.2976-70.2976-70.2976z m-370.432 288.8704c-23.0912 0-41.8304-18.7392-41.8304-41.8304s18.7392-41.8304 41.8304-41.8304 41.8304 18.7392 41.8304 41.8304-18.7392 41.8304-41.8304 41.8304z m159.1296 0c-23.0912 0-41.8304-18.7392-41.8304-41.8304s18.7392-41.8304 41.8304-41.8304 41.8304 18.7392 41.8304 41.8304-18.688 41.8304-41.8304 41.8304z m159.1808 0c-23.0912 0-41.8304-18.7392-41.8304-41.8304s18.7392-41.8304 41.8304-41.8304 41.8304 18.7392 41.8304 41.8304-18.7392 41.8304-41.8304 41.8304z" fill="#FFFFFF" p-id="13004"></path></svg>