<?xml version="1.0" standalone="no"?><!DOCTYPE svg PUBLIC "-//W3C//DTD SVG 1.1//EN" "http://www.w3.org/Graphics/SVG/1.1/DTD/svg11.dtd"><svg t="1692213193124" class="icon" viewBox="0 0 1024 1024" version="1.1" xmlns="http://www.w3.org/2000/svg" p-id="11980" xmlns:xlink="http://www.w3.org/1999/xlink" width="200" height="200"><path d="M810.666667 34.133333C793.6 17.066667 716.8-25.6 657.066667 34.133333L136.533333 554.666667l-17.066666 17.066666L42.666667 853.333333c0 17.066667 0 25.6 8.533333 34.133334 8.533333 8.533333 25.6 8.533333 34.133333 8.533333l281.6-76.8c8.533333 0 17.066667-8.533333 17.066667-8.533333l520.533333-520.533334c42.666667-42.666667 42.666667-110.933333 0-153.6L810.666667 34.133333z" fill="#0587D4" p-id="11981"></path><path d="M861.866667 230.4l-59.733334 59.733333-153.6-145.066666 59.733334-59.733334c17.066667-17.066667 34.133333-17.066667 42.666666 0l102.4 102.4c17.066667 8.533333 17.066667 34.133333 8.533334 42.666667zM358.4 733.866667L213.333333 580.266667l384-384L742.4 341.333333zM179.2 657.066667L290.133333 768l-153.6 42.666667z" fill="#FFFFFF" p-id="11982"></path><path d="M42.666667 981.333333c0-25.6 17.066667-42.666667 42.666666-42.666666h768c25.6 0 42.666667 17.066667 42.666667 42.666666s-17.066667 42.666667-42.666667 42.666667h-768c-25.6 0-42.666667-17.066667-42.666666-42.666667z" fill="#0587D4" p-id="11983"></path></svg>