<?xml version="1.0" standalone="no"?><!DOCTYPE svg PUBLIC "-//W3C//DTD SVG 1.1//EN" "http://www.w3.org/Graphics/SVG/1.1/DTD/svg11.dtd"><svg t="1692216356374" class="icon" viewBox="0 0 1024 1024" version="1.1" xmlns="http://www.w3.org/2000/svg" p-id="27625" xmlns:xlink="http://www.w3.org/1999/xlink" width="200" height="200"><path d="M1024 512.512c0 17.408-7.68 32.768-19.456 44.032l-197.12 176.64c-10.24 9.216-24.576 15.36-39.424 15.36-32.768 0-58.88-26.624-58.88-58.88 0-17.408 7.68-32.768 19.456-44.032l82.432-74.24h-384c-32.768 0-58.88-26.624-58.88-58.88 0-32.768 26.624-58.88 58.88-58.88h384l-82.432-74.24c-11.776-10.752-19.456-26.624-19.456-43.52 0-32.768 26.624-58.88 58.88-58.88 15.36 0 29.184 5.632 39.424 15.36l197.12 176.64c11.776 10.24 19.456 26.112 19.456 43.52z" p-id="27626"></path><path d="M508.416 906.24c32.768 0 58.88 26.624 58.88 58.88 0 32.768-26.624 58.88-58.88 58.88H59.392C26.624 1024 0 997.888 0 965.12V60.928C0 28.16 26.624 2.048 59.392 2.048h449.536c32.768 0 58.88 26.112 58.88 58.88s-26.624 58.88-58.88 58.88H118.272V906.24h390.144z" p-id="27627"></path></svg>