<?xml version="1.0" standalone="no"?><!DOCTYPE svg PUBLIC "-//W3C//DTD SVG 1.1//EN" "http://www.w3.org/Graphics/SVG/1.1/DTD/svg11.dtd"><svg t="1692214555978" class="icon" viewBox="0 0 1024 1024" version="1.1" xmlns="http://www.w3.org/2000/svg" p-id="14971" xmlns:xlink="http://www.w3.org/1999/xlink" width="200" height="200"><path d="M503.808 61.44a450.56 450.56 0 1 0 275.712 806.912 40.96 40.96 0 1 0-50.176-64.7168 368.64 368.64 0 1 1 14.4896-571.4432 40.96 40.96 0 1 0 53.3504-62.1568A448.8704 448.8704 0 0 0 503.808 61.44z m337.152 265.3184a38.4 38.4 0 0 0-49.8176 5.4272l-3.584 4.4544a38.4 38.4 0 0 0 5.4272 49.8176l93.3888 87.0912-281.7536 0.0512a38.4 38.4 0 0 0-5.1712 76.4416l5.1712 0.3584 264.2944-0.0512-76.8512 76.9536-3.7376 4.3008a38.4 38.4 0 0 0 58.0096 49.9712l153.1392-153.088 3.7888-4.4544a38.4 38.4 0 0 0-4.7104-50.7904l-153.1392-142.8992z" fill="#4D6BFF" p-id="14972"></path></svg>