<?xml version="1.0" standalone="no"?><!DOCTYPE svg PUBLIC "-//W3C//DTD SVG 1.1//EN" "http://www.w3.org/Graphics/SVG/1.1/DTD/svg11.dtd"><svg t="1692215360358" class="icon" viewBox="0 0 1024 1024" version="1.1" xmlns="http://www.w3.org/2000/svg" p-id="27482" xmlns:xlink="http://www.w3.org/1999/xlink" width="200" height="200"><path d="M162.00019531 112.00009766h50.00009766V911.99902344h-50.00097656z" fill="#ff0000" p-id="27483"></path><path d="M162.00019531 112.00009766h50.00009766V911.99902344h-50.00097656z m550.00019531 0h49.99921875v150.00029296h-49.99921875z" fill="#ff0000" p-id="27484"></path><path d="M712.00039063 112.00009766h49.99921875v150.00029296h-49.99921875z m0 699.99960937h49.99921875V962h-49.99921875z" fill="#ff0000" p-id="27485"></path><path d="M712.00039063 811.99970703h49.99921875V962h-49.99921875zM162.00019531 112.00097656h550.00019531v50.00009766H162.00019531z" fill="#ff0000" p-id="27486"></path><path d="M162.00019531 112.00009766h550.00019531v50.00009765H162.00019531z m0 799.99980468h550.00019531V962H162.00019531z" fill="#ff0000" p-id="27487"></path><path d="M162.00019531 911.99990234h550.00019531V962H162.00019531zM311.99960937 512h500.00097657v50.00009766h-500.00097657z" fill="#ff0000" p-id="27488"></path><path d="M311.99960937 512h500.00097657v50.00009766h-500.00097657z" fill="#ff0000" p-id="27489"></path><path d="M856.99970703 557l15.00029297-20.00039062-174.99990234-174.99902344-34.99980469 34.99980469 140.00009765 139.99921875-140.00097656 145.00019531 35.0006836 34.99980469z" fill="#ff0000" p-id="27490"></path></svg>